# xmcd
#
# Track frame offsets:
#	150
#	17369
#	30082
#	45663
#	59588
#	76420
#	93360
#	109958
#	127714
#	141336
#	159013
#	172414
#	186241
#	205279
#	224653
#
# Disc length: 3212 seconds
#
# Revision: 1
# Processed by: cddbd v1.5.1PL0 Copyright (c) Steve Scherf et al.
# Submitted via: audiograbber 1.83.01
#
DISCID=cb0c8a0f
DTITLE=Morgan Stone - FEELS LIKE YOU
DYEAR=2005
DGENRE=Country
TTITLE0=Feels Like You
TTITLE1=When I`m In Love
TTITLE2=Forever In My Dreams
TTITLE3=Angel Inside
TTITLE4=Bittersweet
TTITLE5=Walk On Fire
TTITLE6=Where Are You Now
TTITLE7=When Love Starts Telling You Lies
TTITLE8=So Far From Now
TTITLE9=Love Is Gonna Get You
TTITLE10=Too Hot To Handle
TTITLE11=Now I See (Bonus Track)
TTITLE12=Dreaming (Bonus Track)
TTITLE13=Lingering Around (Bounus Track)
TTITLE14=Once Upon A Time (Bonus Track)
EXTD=
EXTT0=
EXTT1=
EXTT2=
EXTT3=
EXTT4=
EXTT5=
EXTT6=
EXTT7=
EXTT8=
EXTT9=
EXTT10=
EXTT11=
EXTT12=
EXTT13=
EXTT14=
PLAYORDER=
